<mxfile host="app.diagrams.net" agent="Mozilla/5.0 (Windows NT 10.0; Win64; x64) AppleWebKit/537.36 (KHTML, like Gecko) Chrome/138.0.0.0 Safari/537.36 Edg/138.0.0.0" version="28.0.3" pages="2">
  <diagram name="Page-1" id="vqHG3lZn6xKecjCFPl5s">
    <mxGraphModel dx="1042" dy="626" grid="1" gridSize="10" guides="1" tooltips="1" connect="1" arrows="1" fold="1" page="1" pageScale="1" pageWidth="850" pageHeight="1100" math="0" shadow="0">
      <root>
        <mxCell id="0" />
        <mxCell id="1" parent="0" />
        <mxCell id="1xaYi0uhSwK3KF2hBVhu-1" value="EMPLOYEE" style="shape=table;startSize=25;container=1;collapsible=0;childLayout=tableLayout;fixedRows=1;rowLines=1;fontStyle=1;align=center;resizeLast=1;" vertex="1" parent="1">
          <mxGeometry x="276" y="20" width="230" height="475" as="geometry" />
        </mxCell>
        <mxCell id="1xaYi0uhSwK3KF2hBVhu-2" style="shape=tableRow;horizontal=0;startSize=0;swimlaneHead=0;swimlaneBody=0;fillColor=none;collapsible=0;dropTarget=0;points=[[0,0.5],[1,0.5]];portConstraint=eastwest;top=0;left=0;right=0;bottom=0;" vertex="1" parent="1xaYi0uhSwK3KF2hBVhu-1">
          <mxGeometry y="25" width="230" height="45" as="geometry" />
        </mxCell>
        <mxCell id="1xaYi0uhSwK3KF2hBVhu-3" value="x" style="shape=partialRectangle;connectable=0;fillColor=none;top=0;left=0;bottom=0;right=0;align=left;spacingLeft=2;overflow=hidden;fontSize=11;" vertex="1" parent="1xaYi0uhSwK3KF2hBVhu-2">
          <mxGeometry width="6" height="45" as="geometry">
            <mxRectangle width="6" height="45" as="alternateBounds" />
          </mxGeometry>
        </mxCell>
        <mxCell id="1xaYi0uhSwK3KF2hBVhu-4" value="employee_id" style="shape=partialRectangle;connectable=0;fillColor=none;top=0;left=0;bottom=0;right=0;align=left;spacingLeft=2;overflow=hidden;fontSize=11;" vertex="1" parent="1xaYi0uhSwK3KF2hBVhu-2">
          <mxGeometry x="6" width="224" height="45" as="geometry">
            <mxRectangle width="224" height="45" as="alternateBounds" />
          </mxGeometry>
        </mxCell>
        <mxCell id="1xaYi0uhSwK3KF2hBVhu-5" style="shape=tableRow;horizontal=0;startSize=0;swimlaneHead=0;swimlaneBody=0;fillColor=none;collapsible=0;dropTarget=0;points=[[0,0.5],[1,0.5]];portConstraint=eastwest;top=0;left=0;right=0;bottom=0;" vertex="1" parent="1xaYi0uhSwK3KF2hBVhu-1">
          <mxGeometry y="70" width="230" height="45" as="geometry" />
        </mxCell>
        <mxCell id="1xaYi0uhSwK3KF2hBVhu-6" value="x" style="shape=partialRectangle;connectable=0;fillColor=none;top=0;left=0;bottom=0;right=0;align=left;spacingLeft=2;overflow=hidden;fontSize=11;" vertex="1" parent="1xaYi0uhSwK3KF2hBVhu-5">
          <mxGeometry width="6" height="45" as="geometry">
            <mxRectangle width="6" height="45" as="alternateBounds" />
          </mxGeometry>
        </mxCell>
        <mxCell id="1xaYi0uhSwK3KF2hBVhu-7" value="first_name" style="shape=partialRectangle;connectable=0;fillColor=none;top=0;left=0;bottom=0;right=0;align=left;spacingLeft=2;overflow=hidden;fontSize=11;" vertex="1" parent="1xaYi0uhSwK3KF2hBVhu-5">
          <mxGeometry x="6" width="224" height="45" as="geometry">
            <mxRectangle width="224" height="45" as="alternateBounds" />
          </mxGeometry>
        </mxCell>
        <mxCell id="1xaYi0uhSwK3KF2hBVhu-8" style="shape=tableRow;horizontal=0;startSize=0;swimlaneHead=0;swimlaneBody=0;fillColor=none;collapsible=0;dropTarget=0;points=[[0,0.5],[1,0.5]];portConstraint=eastwest;top=0;left=0;right=0;bottom=0;" vertex="1" parent="1xaYi0uhSwK3KF2hBVhu-1">
          <mxGeometry y="115" width="230" height="45" as="geometry" />
        </mxCell>
        <mxCell id="1xaYi0uhSwK3KF2hBVhu-9" value="x" style="shape=partialRectangle;connectable=0;fillColor=none;top=0;left=0;bottom=0;right=0;align=left;spacingLeft=2;overflow=hidden;fontSize=11;" vertex="1" parent="1xaYi0uhSwK3KF2hBVhu-8">
          <mxGeometry width="6" height="45" as="geometry">
            <mxRectangle width="6" height="45" as="alternateBounds" />
          </mxGeometry>
        </mxCell>
        <mxCell id="1xaYi0uhSwK3KF2hBVhu-10" value="last_name" style="shape=partialRectangle;connectable=0;fillColor=none;top=0;left=0;bottom=0;right=0;align=left;spacingLeft=2;overflow=hidden;fontSize=11;" vertex="1" parent="1xaYi0uhSwK3KF2hBVhu-8">
          <mxGeometry x="6" width="224" height="45" as="geometry">
            <mxRectangle width="224" height="45" as="alternateBounds" />
          </mxGeometry>
        </mxCell>
        <mxCell id="1xaYi0uhSwK3KF2hBVhu-11" style="shape=tableRow;horizontal=0;startSize=0;swimlaneHead=0;swimlaneBody=0;fillColor=none;collapsible=0;dropTarget=0;points=[[0,0.5],[1,0.5]];portConstraint=eastwest;top=0;left=0;right=0;bottom=0;" vertex="1" parent="1xaYi0uhSwK3KF2hBVhu-1">
          <mxGeometry y="160" width="230" height="45" as="geometry" />
        </mxCell>
        <mxCell id="1xaYi0uhSwK3KF2hBVhu-12" value="x" style="shape=partialRectangle;connectable=0;fillColor=none;top=0;left=0;bottom=0;right=0;align=left;spacingLeft=2;overflow=hidden;fontSize=11;" vertex="1" parent="1xaYi0uhSwK3KF2hBVhu-11">
          <mxGeometry width="6" height="45" as="geometry">
            <mxRectangle width="6" height="45" as="alternateBounds" />
          </mxGeometry>
        </mxCell>
        <mxCell id="1xaYi0uhSwK3KF2hBVhu-13" value="title" style="shape=partialRectangle;connectable=0;fillColor=none;top=0;left=0;bottom=0;right=0;align=left;spacingLeft=2;overflow=hidden;fontSize=11;" vertex="1" parent="1xaYi0uhSwK3KF2hBVhu-11">
          <mxGeometry x="6" width="224" height="45" as="geometry">
            <mxRectangle width="224" height="45" as="alternateBounds" />
          </mxGeometry>
        </mxCell>
        <mxCell id="1xaYi0uhSwK3KF2hBVhu-14" style="shape=tableRow;horizontal=0;startSize=0;swimlaneHead=0;swimlaneBody=0;fillColor=none;collapsible=0;dropTarget=0;points=[[0,0.5],[1,0.5]];portConstraint=eastwest;top=0;left=0;right=0;bottom=0;" vertex="1" parent="1xaYi0uhSwK3KF2hBVhu-1">
          <mxGeometry y="205" width="230" height="45" as="geometry" />
        </mxCell>
        <mxCell id="1xaYi0uhSwK3KF2hBVhu-15" value="x" style="shape=partialRectangle;connectable=0;fillColor=none;top=0;left=0;bottom=0;right=0;align=left;spacingLeft=2;overflow=hidden;fontSize=11;" vertex="1" parent="1xaYi0uhSwK3KF2hBVhu-14">
          <mxGeometry width="6" height="45" as="geometry">
            <mxRectangle width="6" height="45" as="alternateBounds" />
          </mxGeometry>
        </mxCell>
        <mxCell id="1xaYi0uhSwK3KF2hBVhu-16" value="job_code" style="shape=partialRectangle;connectable=0;fillColor=none;top=0;left=0;bottom=0;right=0;align=left;spacingLeft=2;overflow=hidden;fontSize=11;" vertex="1" parent="1xaYi0uhSwK3KF2hBVhu-14">
          <mxGeometry x="6" width="224" height="45" as="geometry">
            <mxRectangle width="224" height="45" as="alternateBounds" />
          </mxGeometry>
        </mxCell>
        <mxCell id="1xaYi0uhSwK3KF2hBVhu-17" style="shape=tableRow;horizontal=0;startSize=0;swimlaneHead=0;swimlaneBody=0;fillColor=none;collapsible=0;dropTarget=0;points=[[0,0.5],[1,0.5]];portConstraint=eastwest;top=0;left=0;right=0;bottom=0;" vertex="1" parent="1xaYi0uhSwK3KF2hBVhu-1">
          <mxGeometry y="250" width="230" height="45" as="geometry" />
        </mxCell>
        <mxCell id="1xaYi0uhSwK3KF2hBVhu-18" value="x" style="shape=partialRectangle;connectable=0;fillColor=none;top=0;left=0;bottom=0;right=0;align=left;spacingLeft=2;overflow=hidden;fontSize=11;" vertex="1" parent="1xaYi0uhSwK3KF2hBVhu-17">
          <mxGeometry width="6" height="45" as="geometry">
            <mxRectangle width="6" height="45" as="alternateBounds" />
          </mxGeometry>
        </mxCell>
        <mxCell id="1xaYi0uhSwK3KF2hBVhu-19" value="employee_category" style="shape=partialRectangle;connectable=0;fillColor=none;top=0;left=0;bottom=0;right=0;align=left;spacingLeft=2;overflow=hidden;fontSize=11;" vertex="1" parent="1xaYi0uhSwK3KF2hBVhu-17">
          <mxGeometry x="6" width="224" height="45" as="geometry">
            <mxRectangle width="224" height="45" as="alternateBounds" />
          </mxGeometry>
        </mxCell>
        <mxCell id="1xaYi0uhSwK3KF2hBVhu-20" style="shape=tableRow;horizontal=0;startSize=0;swimlaneHead=0;swimlaneBody=0;fillColor=none;collapsible=0;dropTarget=0;points=[[0,0.5],[1,0.5]];portConstraint=eastwest;top=0;left=0;right=0;bottom=0;" vertex="1" parent="1xaYi0uhSwK3KF2hBVhu-1">
          <mxGeometry y="295" width="230" height="45" as="geometry" />
        </mxCell>
        <mxCell id="1xaYi0uhSwK3KF2hBVhu-21" value="x" style="shape=partialRectangle;connectable=0;fillColor=none;top=0;left=0;bottom=0;right=0;align=left;spacingLeft=2;overflow=hidden;fontSize=11;" vertex="1" parent="1xaYi0uhSwK3KF2hBVhu-20">
          <mxGeometry width="6" height="45" as="geometry">
            <mxRectangle width="6" height="45" as="alternateBounds" />
          </mxGeometry>
        </mxCell>
        <mxCell id="1xaYi0uhSwK3KF2hBVhu-22" value="compulsory_union_code" style="shape=partialRectangle;connectable=0;fillColor=none;top=0;left=0;bottom=0;right=0;align=left;spacingLeft=2;overflow=hidden;fontSize=11;" vertex="1" parent="1xaYi0uhSwK3KF2hBVhu-20">
          <mxGeometry x="6" width="224" height="45" as="geometry">
            <mxRectangle width="224" height="45" as="alternateBounds" />
          </mxGeometry>
        </mxCell>
        <mxCell id="1xaYi0uhSwK3KF2hBVhu-23" style="shape=tableRow;horizontal=0;startSize=0;swimlaneHead=0;swimlaneBody=0;fillColor=none;collapsible=0;dropTarget=0;points=[[0,0.5],[1,0.5]];portConstraint=eastwest;top=0;left=0;right=0;bottom=0;" vertex="1" parent="1xaYi0uhSwK3KF2hBVhu-1">
          <mxGeometry y="340" width="230" height="45" as="geometry" />
        </mxCell>
        <mxCell id="1xaYi0uhSwK3KF2hBVhu-24" value="x" style="shape=partialRectangle;connectable=0;fillColor=none;top=0;left=0;bottom=0;right=0;align=left;spacingLeft=2;overflow=hidden;fontSize=11;" vertex="1" parent="1xaYi0uhSwK3KF2hBVhu-23">
          <mxGeometry width="6" height="45" as="geometry">
            <mxRectangle width="6" height="45" as="alternateBounds" />
          </mxGeometry>
        </mxCell>
        <mxCell id="1xaYi0uhSwK3KF2hBVhu-25" value="termination_month" style="shape=partialRectangle;connectable=0;fillColor=none;top=0;left=0;bottom=0;right=0;align=left;spacingLeft=2;overflow=hidden;fontSize=11;" vertex="1" parent="1xaYi0uhSwK3KF2hBVhu-23">
          <mxGeometry x="6" width="224" height="45" as="geometry">
            <mxRectangle width="224" height="45" as="alternateBounds" />
          </mxGeometry>
        </mxCell>
        <mxCell id="1xaYi0uhSwK3KF2hBVhu-26" style="shape=tableRow;horizontal=0;startSize=0;swimlaneHead=0;swimlaneBody=0;fillColor=none;collapsible=0;dropTarget=0;points=[[0,0.5],[1,0.5]];portConstraint=eastwest;top=0;left=0;right=0;bottom=0;" vertex="1" parent="1xaYi0uhSwK3KF2hBVhu-1">
          <mxGeometry y="385" width="230" height="45" as="geometry" />
        </mxCell>
        <mxCell id="1xaYi0uhSwK3KF2hBVhu-27" value="x" style="shape=partialRectangle;connectable=0;fillColor=none;top=0;left=0;bottom=0;right=0;align=left;spacingLeft=2;overflow=hidden;fontSize=11;" vertex="1" parent="1xaYi0uhSwK3KF2hBVhu-26">
          <mxGeometry width="6" height="45" as="geometry">
            <mxRectangle width="6" height="45" as="alternateBounds" />
          </mxGeometry>
        </mxCell>
        <mxCell id="1xaYi0uhSwK3KF2hBVhu-28" value="termination_year" style="shape=partialRectangle;connectable=0;fillColor=none;top=0;left=0;bottom=0;right=0;align=left;spacingLeft=2;overflow=hidden;fontSize=11;" vertex="1" parent="1xaYi0uhSwK3KF2hBVhu-26">
          <mxGeometry x="6" width="224" height="45" as="geometry">
            <mxRectangle width="224" height="45" as="alternateBounds" />
          </mxGeometry>
        </mxCell>
        <mxCell id="1xaYi0uhSwK3KF2hBVhu-29" style="shape=tableRow;horizontal=0;startSize=0;swimlaneHead=0;swimlaneBody=0;fillColor=none;collapsible=0;dropTarget=0;points=[[0,0.5],[1,0.5]];portConstraint=eastwest;top=0;left=0;right=0;bottom=0;" vertex="1" parent="1xaYi0uhSwK3KF2hBVhu-1">
          <mxGeometry y="430" width="230" height="45" as="geometry" />
        </mxCell>
        <mxCell id="1xaYi0uhSwK3KF2hBVhu-30" value="x" style="shape=partialRectangle;connectable=0;fillColor=none;top=0;left=0;bottom=0;right=0;align=left;spacingLeft=2;overflow=hidden;fontSize=11;" vertex="1" parent="1xaYi0uhSwK3KF2hBVhu-29">
          <mxGeometry width="6" height="45" as="geometry">
            <mxRectangle width="6" height="45" as="alternateBounds" />
          </mxGeometry>
        </mxCell>
        <mxCell id="1xaYi0uhSwK3KF2hBVhu-31" value="public_id" style="shape=partialRectangle;connectable=0;fillColor=none;top=0;left=0;bottom=0;right=0;align=left;spacingLeft=2;overflow=hidden;fontSize=11;" vertex="1" parent="1xaYi0uhSwK3KF2hBVhu-29">
          <mxGeometry x="6" width="224" height="45" as="geometry">
            <mxRectangle width="224" height="45" as="alternateBounds" />
          </mxGeometry>
        </mxCell>
        <mxCell id="1xaYi0uhSwK3KF2hBVhu-32" value="DEPARTMENT" style="shape=table;startSize=25;container=1;collapsible=0;childLayout=tableLayout;fixedRows=1;rowLines=1;fontStyle=1;align=center;resizeLast=1;" vertex="1" parent="1">
          <mxGeometry x="442" y="742" width="206" height="172" as="geometry" />
        </mxCell>
        <mxCell id="1xaYi0uhSwK3KF2hBVhu-33" style="shape=tableRow;horizontal=0;startSize=0;swimlaneHead=0;swimlaneBody=0;fillColor=none;collapsible=0;dropTarget=0;points=[[0,0.5],[1,0.5]];portConstraint=eastwest;top=0;left=0;right=0;bottom=0;" vertex="1" parent="1xaYi0uhSwK3KF2hBVhu-32">
          <mxGeometry y="25" width="206" height="49" as="geometry" />
        </mxCell>
        <mxCell id="1xaYi0uhSwK3KF2hBVhu-34" value="x" style="shape=partialRectangle;connectable=0;fillColor=none;top=0;left=0;bottom=0;right=0;align=left;spacingLeft=2;overflow=hidden;fontSize=11;" vertex="1" parent="1xaYi0uhSwK3KF2hBVhu-33">
          <mxGeometry width="6" height="49" as="geometry">
            <mxRectangle width="6" height="49" as="alternateBounds" />
          </mxGeometry>
        </mxCell>
        <mxCell id="1xaYi0uhSwK3KF2hBVhu-35" value="department_id" style="shape=partialRectangle;connectable=0;fillColor=none;top=0;left=0;bottom=0;right=0;align=left;spacingLeft=2;overflow=hidden;fontSize=11;" vertex="1" parent="1xaYi0uhSwK3KF2hBVhu-33">
          <mxGeometry x="6" width="200" height="49" as="geometry">
            <mxRectangle width="200" height="49" as="alternateBounds" />
          </mxGeometry>
        </mxCell>
        <mxCell id="1xaYi0uhSwK3KF2hBVhu-36" style="shape=tableRow;horizontal=0;startSize=0;swimlaneHead=0;swimlaneBody=0;fillColor=none;collapsible=0;dropTarget=0;points=[[0,0.5],[1,0.5]];portConstraint=eastwest;top=0;left=0;right=0;bottom=0;" vertex="1" parent="1xaYi0uhSwK3KF2hBVhu-32">
          <mxGeometry y="74" width="206" height="49" as="geometry" />
        </mxCell>
        <mxCell id="1xaYi0uhSwK3KF2hBVhu-37" value="x" style="shape=partialRectangle;connectable=0;fillColor=none;top=0;left=0;bottom=0;right=0;align=left;spacingLeft=2;overflow=hidden;fontSize=11;" vertex="1" parent="1xaYi0uhSwK3KF2hBVhu-36">
          <mxGeometry width="6" height="49" as="geometry">
            <mxRectangle width="6" height="49" as="alternateBounds" />
          </mxGeometry>
        </mxCell>
        <mxCell id="1xaYi0uhSwK3KF2hBVhu-38" value="department_name" style="shape=partialRectangle;connectable=0;fillColor=none;top=0;left=0;bottom=0;right=0;align=left;spacingLeft=2;overflow=hidden;fontSize=11;" vertex="1" parent="1xaYi0uhSwK3KF2hBVhu-36">
          <mxGeometry x="6" width="200" height="49" as="geometry">
            <mxRectangle width="200" height="49" as="alternateBounds" />
          </mxGeometry>
        </mxCell>
        <mxCell id="1xaYi0uhSwK3KF2hBVhu-39" style="shape=tableRow;horizontal=0;startSize=0;swimlaneHead=0;swimlaneBody=0;fillColor=none;collapsible=0;dropTarget=0;points=[[0,0.5],[1,0.5]];portConstraint=eastwest;top=0;left=0;right=0;bottom=0;" vertex="1" parent="1xaYi0uhSwK3KF2hBVhu-32">
          <mxGeometry y="123" width="206" height="49" as="geometry" />
        </mxCell>
        <mxCell id="1xaYi0uhSwK3KF2hBVhu-40" value="x" style="shape=partialRectangle;connectable=0;fillColor=none;top=0;left=0;bottom=0;right=0;align=left;spacingLeft=2;overflow=hidden;fontSize=11;" vertex="1" parent="1xaYi0uhSwK3KF2hBVhu-39">
          <mxGeometry width="6" height="49" as="geometry">
            <mxRectangle width="6" height="49" as="alternateBounds" />
          </mxGeometry>
        </mxCell>
        <mxCell id="1xaYi0uhSwK3KF2hBVhu-41" value="department_number" style="shape=partialRectangle;connectable=0;fillColor=none;top=0;left=0;bottom=0;right=0;align=left;spacingLeft=2;overflow=hidden;fontSize=11;" vertex="1" parent="1xaYi0uhSwK3KF2hBVhu-39">
          <mxGeometry x="6" width="200" height="49" as="geometry">
            <mxRectangle width="200" height="49" as="alternateBounds" />
          </mxGeometry>
        </mxCell>
        <mxCell id="1xaYi0uhSwK3KF2hBVhu-42" value="EARNINGS" style="shape=table;startSize=25;container=1;collapsible=0;childLayout=tableLayout;fixedRows=1;rowLines=1;fontStyle=1;align=center;resizeLast=1;" vertex="1" parent="1">
          <mxGeometry x="20" y="593" width="282" height="475" as="geometry" />
        </mxCell>
        <mxCell id="1xaYi0uhSwK3KF2hBVhu-43" style="shape=tableRow;horizontal=0;startSize=0;swimlaneHead=0;swimlaneBody=0;fillColor=none;collapsible=0;dropTarget=0;points=[[0,0.5],[1,0.5]];portConstraint=eastwest;top=0;left=0;right=0;bottom=0;" vertex="1" parent="1xaYi0uhSwK3KF2hBVhu-42">
          <mxGeometry y="25" width="282" height="45" as="geometry" />
        </mxCell>
        <mxCell id="1xaYi0uhSwK3KF2hBVhu-44" value="x" style="shape=partialRectangle;connectable=0;fillColor=none;top=0;left=0;bottom=0;right=0;align=left;spacingLeft=2;overflow=hidden;fontSize=11;" vertex="1" parent="1xaYi0uhSwK3KF2hBVhu-43">
          <mxGeometry width="6" height="45" as="geometry">
            <mxRectangle width="6" height="45" as="alternateBounds" />
          </mxGeometry>
        </mxCell>
        <mxCell id="1xaYi0uhSwK3KF2hBVhu-45" value="earnings_id" style="shape=partialRectangle;connectable=0;fillColor=none;top=0;left=0;bottom=0;right=0;align=left;spacingLeft=2;overflow=hidden;fontSize=11;" vertex="1" parent="1xaYi0uhSwK3KF2hBVhu-43">
          <mxGeometry x="6" width="276" height="45" as="geometry">
            <mxRectangle width="276" height="45" as="alternateBounds" />
          </mxGeometry>
        </mxCell>
        <mxCell id="1xaYi0uhSwK3KF2hBVhu-46" style="shape=tableRow;horizontal=0;startSize=0;swimlaneHead=0;swimlaneBody=0;fillColor=none;collapsible=0;dropTarget=0;points=[[0,0.5],[1,0.5]];portConstraint=eastwest;top=0;left=0;right=0;bottom=0;" vertex="1" parent="1xaYi0uhSwK3KF2hBVhu-42">
          <mxGeometry y="70" width="282" height="45" as="geometry" />
        </mxCell>
        <mxCell id="1xaYi0uhSwK3KF2hBVhu-47" value="x" style="shape=partialRectangle;connectable=0;fillColor=none;top=0;left=0;bottom=0;right=0;align=left;spacingLeft=2;overflow=hidden;fontSize=11;" vertex="1" parent="1xaYi0uhSwK3KF2hBVhu-46">
          <mxGeometry width="6" height="45" as="geometry">
            <mxRectangle width="6" height="45" as="alternateBounds" />
          </mxGeometry>
        </mxCell>
        <mxCell id="1xaYi0uhSwK3KF2hBVhu-48" value="calendar_year" style="shape=partialRectangle;connectable=0;fillColor=none;top=0;left=0;bottom=0;right=0;align=left;spacingLeft=2;overflow=hidden;fontSize=11;" vertex="1" parent="1xaYi0uhSwK3KF2hBVhu-46">
          <mxGeometry x="6" width="276" height="45" as="geometry">
            <mxRectangle width="276" height="45" as="alternateBounds" />
          </mxGeometry>
        </mxCell>
        <mxCell id="1xaYi0uhSwK3KF2hBVhu-49" style="shape=tableRow;horizontal=0;startSize=0;swimlaneHead=0;swimlaneBody=0;fillColor=none;collapsible=0;dropTarget=0;points=[[0,0.5],[1,0.5]];portConstraint=eastwest;top=0;left=0;right=0;bottom=0;" vertex="1" parent="1xaYi0uhSwK3KF2hBVhu-42">
          <mxGeometry y="115" width="282" height="45" as="geometry" />
        </mxCell>
        <mxCell id="1xaYi0uhSwK3KF2hBVhu-50" value="x" style="shape=partialRectangle;connectable=0;fillColor=none;top=0;left=0;bottom=0;right=0;align=left;spacingLeft=2;overflow=hidden;fontSize=11;" vertex="1" parent="1xaYi0uhSwK3KF2hBVhu-49">
          <mxGeometry width="6" height="45" as="geometry">
            <mxRectangle width="6" height="45" as="alternateBounds" />
          </mxGeometry>
        </mxCell>
        <mxCell id="1xaYi0uhSwK3KF2hBVhu-51" value="quarter" style="shape=partialRectangle;connectable=0;fillColor=none;top=0;left=0;bottom=0;right=0;align=left;spacingLeft=2;overflow=hidden;fontSize=11;" vertex="1" parent="1xaYi0uhSwK3KF2hBVhu-49">
          <mxGeometry x="6" width="276" height="45" as="geometry">
            <mxRectangle width="276" height="45" as="alternateBounds" />
          </mxGeometry>
        </mxCell>
        <mxCell id="1xaYi0uhSwK3KF2hBVhu-52" style="shape=tableRow;horizontal=0;startSize=0;swimlaneHead=0;swimlaneBody=0;fillColor=none;collapsible=0;dropTarget=0;points=[[0,0.5],[1,0.5]];portConstraint=eastwest;top=0;left=0;right=0;bottom=0;" vertex="1" parent="1xaYi0uhSwK3KF2hBVhu-42">
          <mxGeometry y="160" width="282" height="45" as="geometry" />
        </mxCell>
        <mxCell id="1xaYi0uhSwK3KF2hBVhu-53" value="x" style="shape=partialRectangle;connectable=0;fillColor=none;top=0;left=0;bottom=0;right=0;align=left;spacingLeft=2;overflow=hidden;fontSize=11;" vertex="1" parent="1xaYi0uhSwK3KF2hBVhu-52">
          <mxGeometry width="6" height="45" as="geometry">
            <mxRectangle width="6" height="45" as="alternateBounds" />
          </mxGeometry>
        </mxCell>
        <mxCell id="1xaYi0uhSwK3KF2hBVhu-54" value="base_salary" style="shape=partialRectangle;connectable=0;fillColor=none;top=0;left=0;bottom=0;right=0;align=left;spacingLeft=2;overflow=hidden;fontSize=11;" vertex="1" parent="1xaYi0uhSwK3KF2hBVhu-52">
          <mxGeometry x="6" width="276" height="45" as="geometry">
            <mxRectangle width="276" height="45" as="alternateBounds" />
          </mxGeometry>
        </mxCell>
        <mxCell id="1xaYi0uhSwK3KF2hBVhu-55" style="shape=tableRow;horizontal=0;startSize=0;swimlaneHead=0;swimlaneBody=0;fillColor=none;collapsible=0;dropTarget=0;points=[[0,0.5],[1,0.5]];portConstraint=eastwest;top=0;left=0;right=0;bottom=0;" vertex="1" parent="1xaYi0uhSwK3KF2hBVhu-42">
          <mxGeometry y="205" width="282" height="45" as="geometry" />
        </mxCell>
        <mxCell id="1xaYi0uhSwK3KF2hBVhu-56" value="x" style="shape=partialRectangle;connectable=0;fillColor=none;top=0;left=0;bottom=0;right=0;align=left;spacingLeft=2;overflow=hidden;fontSize=11;" vertex="1" parent="1xaYi0uhSwK3KF2hBVhu-55">
          <mxGeometry width="6" height="45" as="geometry">
            <mxRectangle width="6" height="45" as="alternateBounds" />
          </mxGeometry>
        </mxCell>
        <mxCell id="1xaYi0uhSwK3KF2hBVhu-57" value="salary_type" style="shape=partialRectangle;connectable=0;fillColor=none;top=0;left=0;bottom=0;right=0;align=left;spacingLeft=2;overflow=hidden;fontSize=11;" vertex="1" parent="1xaYi0uhSwK3KF2hBVhu-55">
          <mxGeometry x="6" width="276" height="45" as="geometry">
            <mxRectangle width="276" height="45" as="alternateBounds" />
          </mxGeometry>
        </mxCell>
        <mxCell id="1xaYi0uhSwK3KF2hBVhu-58" style="shape=tableRow;horizontal=0;startSize=0;swimlaneHead=0;swimlaneBody=0;fillColor=none;collapsible=0;dropTarget=0;points=[[0,0.5],[1,0.5]];portConstraint=eastwest;top=0;left=0;right=0;bottom=0;" vertex="1" parent="1xaYi0uhSwK3KF2hBVhu-42">
          <mxGeometry y="250" width="282" height="45" as="geometry" />
        </mxCell>
        <mxCell id="1xaYi0uhSwK3KF2hBVhu-59" value="x" style="shape=partialRectangle;connectable=0;fillColor=none;top=0;left=0;bottom=0;right=0;align=left;spacingLeft=2;overflow=hidden;fontSize=11;" vertex="1" parent="1xaYi0uhSwK3KF2hBVhu-58">
          <mxGeometry width="6" height="45" as="geometry">
            <mxRectangle width="6" height="45" as="alternateBounds" />
          </mxGeometry>
        </mxCell>
        <mxCell id="1xaYi0uhSwK3KF2hBVhu-60" value="overtime_gross_pay_qtd" style="shape=partialRectangle;connectable=0;fillColor=none;top=0;left=0;bottom=0;right=0;align=left;spacingLeft=2;overflow=hidden;fontSize=11;" vertex="1" parent="1xaYi0uhSwK3KF2hBVhu-58">
          <mxGeometry x="6" width="276" height="45" as="geometry">
            <mxRectangle width="276" height="45" as="alternateBounds" />
          </mxGeometry>
        </mxCell>
        <mxCell id="1xaYi0uhSwK3KF2hBVhu-61" style="shape=tableRow;horizontal=0;startSize=0;swimlaneHead=0;swimlaneBody=0;fillColor=none;collapsible=0;dropTarget=0;points=[[0,0.5],[1,0.5]];portConstraint=eastwest;top=0;left=0;right=0;bottom=0;" vertex="1" parent="1xaYi0uhSwK3KF2hBVhu-42">
          <mxGeometry y="295" width="282" height="45" as="geometry" />
        </mxCell>
        <mxCell id="1xaYi0uhSwK3KF2hBVhu-62" value="x" style="shape=partialRectangle;connectable=0;fillColor=none;top=0;left=0;bottom=0;right=0;align=left;spacingLeft=2;overflow=hidden;fontSize=11;" vertex="1" parent="1xaYi0uhSwK3KF2hBVhu-61">
          <mxGeometry width="6" height="45" as="geometry">
            <mxRectangle width="6" height="45" as="alternateBounds" />
          </mxGeometry>
        </mxCell>
        <mxCell id="1xaYi0uhSwK3KF2hBVhu-63" value="base_gross_pay_qtd" style="shape=partialRectangle;connectable=0;fillColor=none;top=0;left=0;bottom=0;right=0;align=left;spacingLeft=2;overflow=hidden;fontSize=11;" vertex="1" parent="1xaYi0uhSwK3KF2hBVhu-61">
          <mxGeometry x="6" width="276" height="45" as="geometry">
            <mxRectangle width="276" height="45" as="alternateBounds" />
          </mxGeometry>
        </mxCell>
        <mxCell id="1xaYi0uhSwK3KF2hBVhu-64" style="shape=tableRow;horizontal=0;startSize=0;swimlaneHead=0;swimlaneBody=0;fillColor=none;collapsible=0;dropTarget=0;points=[[0,0.5],[1,0.5]];portConstraint=eastwest;top=0;left=0;right=0;bottom=0;" vertex="1" parent="1xaYi0uhSwK3KF2hBVhu-42">
          <mxGeometry y="340" width="282" height="45" as="geometry" />
        </mxCell>
        <mxCell id="1xaYi0uhSwK3KF2hBVhu-65" value="x" style="shape=partialRectangle;connectable=0;fillColor=none;top=0;left=0;bottom=0;right=0;align=left;spacingLeft=2;overflow=hidden;fontSize=11;" vertex="1" parent="1xaYi0uhSwK3KF2hBVhu-64">
          <mxGeometry width="6" height="45" as="geometry">
            <mxRectangle width="6" height="45" as="alternateBounds" />
          </mxGeometry>
        </mxCell>
        <mxCell id="1xaYi0uhSwK3KF2hBVhu-66" value="longevity_gross_pay_qtd" style="shape=partialRectangle;connectable=0;fillColor=none;top=0;left=0;bottom=0;right=0;align=left;spacingLeft=2;overflow=hidden;fontSize=11;" vertex="1" parent="1xaYi0uhSwK3KF2hBVhu-64">
          <mxGeometry x="6" width="276" height="45" as="geometry">
            <mxRectangle width="276" height="45" as="alternateBounds" />
          </mxGeometry>
        </mxCell>
        <mxCell id="1xaYi0uhSwK3KF2hBVhu-67" style="shape=tableRow;horizontal=0;startSize=0;swimlaneHead=0;swimlaneBody=0;fillColor=none;collapsible=0;dropTarget=0;points=[[0,0.5],[1,0.5]];portConstraint=eastwest;top=0;left=0;right=0;bottom=0;" vertex="1" parent="1xaYi0uhSwK3KF2hBVhu-42">
          <mxGeometry y="385" width="282" height="45" as="geometry" />
        </mxCell>
        <mxCell id="1xaYi0uhSwK3KF2hBVhu-68" value="x" style="shape=partialRectangle;connectable=0;fillColor=none;top=0;left=0;bottom=0;right=0;align=left;spacingLeft=2;overflow=hidden;fontSize=11;" vertex="1" parent="1xaYi0uhSwK3KF2hBVhu-67">
          <mxGeometry width="6" height="45" as="geometry">
            <mxRectangle width="6" height="45" as="alternateBounds" />
          </mxGeometry>
        </mxCell>
        <mxCell id="1xaYi0uhSwK3KF2hBVhu-69" value="post_separation_gross_pay_qtd" style="shape=partialRectangle;connectable=0;fillColor=none;top=0;left=0;bottom=0;right=0;align=left;spacingLeft=2;overflow=hidden;fontSize=11;" vertex="1" parent="1xaYi0uhSwK3KF2hBVhu-67">
          <mxGeometry x="6" width="276" height="45" as="geometry">
            <mxRectangle width="276" height="45" as="alternateBounds" />
          </mxGeometry>
        </mxCell>
        <mxCell id="1xaYi0uhSwK3KF2hBVhu-70" style="shape=tableRow;horizontal=0;startSize=0;swimlaneHead=0;swimlaneBody=0;fillColor=none;collapsible=0;dropTarget=0;points=[[0,0.5],[1,0.5]];portConstraint=eastwest;top=0;left=0;right=0;bottom=0;" vertex="1" parent="1xaYi0uhSwK3KF2hBVhu-42">
          <mxGeometry y="430" width="282" height="45" as="geometry" />
        </mxCell>
        <mxCell id="1xaYi0uhSwK3KF2hBVhu-71" value="x" style="shape=partialRectangle;connectable=0;fillColor=none;top=0;left=0;bottom=0;right=0;align=left;spacingLeft=2;overflow=hidden;fontSize=11;" vertex="1" parent="1xaYi0uhSwK3KF2hBVhu-70">
          <mxGeometry width="6" height="45" as="geometry">
            <mxRectangle width="6" height="45" as="alternateBounds" />
          </mxGeometry>
        </mxCell>
        <mxCell id="1xaYi0uhSwK3KF2hBVhu-72" value="miscellaneous_gross_pay_qtd" style="shape=partialRectangle;connectable=0;fillColor=none;top=0;left=0;bottom=0;right=0;align=left;spacingLeft=2;overflow=hidden;fontSize=11;" vertex="1" parent="1xaYi0uhSwK3KF2hBVhu-70">
          <mxGeometry x="6" width="276" height="45" as="geometry">
            <mxRectangle width="276" height="45" as="alternateBounds" />
          </mxGeometry>
        </mxCell>
        <mxCell id="1xaYi0uhSwK3KF2hBVhu-73" value="has" style="curved=1;startArrow=ERmandOne;startSize=10;;endArrow=ERzeroToMany;endSize=10;;exitX=0;exitY=0.81;entryX=0.5;entryY=0;rounded=0;" edge="1" parent="1" source="1xaYi0uhSwK3KF2hBVhu-1" target="1xaYi0uhSwK3KF2hBVhu-42">
          <mxGeometry relative="1" as="geometry">
            <Array as="points">
              <mxPoint x="161" y="542" />
            </Array>
          </mxGeometry>
        </mxCell>
        <mxCell id="1xaYi0uhSwK3KF2hBVhu-74" value="belongs_to" style="curved=1;startArrow=ERmandOne;startSize=10;;endArrow=ERzeroToMany;endSize=10;;exitX=0.5;exitY=1;entryX=0.28;entryY=0;rounded=0;" edge="1" parent="1" source="1xaYi0uhSwK3KF2hBVhu-1" target="1xaYi0uhSwK3KF2hBVhu-32">
          <mxGeometry relative="1" as="geometry">
            <Array as="points">
              <mxPoint x="391" y="542" />
            </Array>
          </mxGeometry>
        </mxCell>
        <mxCell id="1xaYi0uhSwK3KF2hBVhu-75" value="has" style="curved=1;startArrow=ERmandOne;startSize=10;;endArrow=ERzeroToMany;endSize=10;;exitX=0.56;exitY=0;entryX=1;entryY=0.86;rounded=0;" edge="1" parent="1" source="1xaYi0uhSwK3KF2hBVhu-32" target="1xaYi0uhSwK3KF2hBVhu-1">
          <mxGeometry relative="1" as="geometry">
            <Array as="points">
              <mxPoint x="583" y="542" />
            </Array>
          </mxGeometry>
        </mxCell>
        <mxCell id="1xaYi0uhSwK3KF2hBVhu-76" value="1:1" style="text;html=1;align=center;verticalAlign=middle;whiteSpace=wrap;rounded=0;" vertex="1" parent="1">
          <mxGeometry x="210" y="390" width="60" height="30" as="geometry" />
        </mxCell>
        <mxCell id="1xaYi0uhSwK3KF2hBVhu-77" value="1:N" style="text;html=1;align=center;verticalAlign=middle;whiteSpace=wrap;rounded=0;" vertex="1" parent="1">
          <mxGeometry x="100" y="550" width="60" height="30" as="geometry" />
        </mxCell>
        <mxCell id="1xaYi0uhSwK3KF2hBVhu-78" value="1:1" style="text;html=1;align=center;verticalAlign=middle;whiteSpace=wrap;rounded=0;" vertex="1" parent="1">
          <mxGeometry x="330" y="510" width="60" height="30" as="geometry" />
        </mxCell>
        <mxCell id="1xaYi0uhSwK3KF2hBVhu-79" value="1:1" style="text;html=1;align=center;verticalAlign=middle;whiteSpace=wrap;rounded=0;" vertex="1" parent="1">
          <mxGeometry x="580" y="700" width="60" height="30" as="geometry" />
        </mxCell>
        <mxCell id="1xaYi0uhSwK3KF2hBVhu-80" value="1:N" style="text;html=1;align=center;verticalAlign=middle;whiteSpace=wrap;rounded=0;" vertex="1" parent="1">
          <mxGeometry x="420" y="700" width="60" height="30" as="geometry" />
        </mxCell>
        <mxCell id="1xaYi0uhSwK3KF2hBVhu-81" value="1:N" style="text;html=1;align=center;verticalAlign=middle;whiteSpace=wrap;rounded=0;" vertex="1" parent="1">
          <mxGeometry x="530" y="400" width="60" height="30" as="geometry" />
        </mxCell>
        <mxCell id="1xaYi0uhSwK3KF2hBVhu-82" value="1:N" style="text;html=1;align=center;verticalAlign=middle;whiteSpace=wrap;rounded=0;" vertex="1" parent="1">
          <mxGeometry x="140" y="465" width="60" height="30" as="geometry" />
        </mxCell>
        <mxCell id="1xaYi0uhSwK3KF2hBVhu-83" value="1:N" style="text;html=1;align=center;verticalAlign=middle;whiteSpace=wrap;rounded=0;" vertex="1" parent="1">
          <mxGeometry x="360" y="630" width="60" height="30" as="geometry" />
        </mxCell>
        <mxCell id="1xaYi0uhSwK3KF2hBVhu-84" value="N:1" style="text;html=1;align=center;verticalAlign=middle;whiteSpace=wrap;rounded=0;" vertex="1" parent="1">
          <mxGeometry x="590" y="550" width="60" height="30" as="geometry" />
        </mxCell>
      </root>
    </mxGraphModel>
  </diagram>
  <diagram id="bS5-vASLNrM4iysLrfIe" name="Page-2">
    <mxGraphModel dx="1251" dy="751" grid="1" gridSize="10" guides="1" tooltips="1" connect="1" arrows="1" fold="1" page="1" pageScale="1" pageWidth="850" pageHeight="1100" math="0" shadow="0">
      <root>
        <mxCell id="0" />
        <mxCell id="1" parent="0" />
        <mxCell id="iHrK704BYx2xCR8LHmUj-238" value="EMPLOYEES" style="shape=table;startSize=25;container=1;collapsible=0;childLayout=tableLayout;fixedRows=1;rowLines=1;fontStyle=1;align=center;resizeLast=1;" vertex="1" parent="1">
          <mxGeometry x="20" y="20" width="338" height="342" as="geometry" />
        </mxCell>
        <mxCell id="iHrK704BYx2xCR8LHmUj-239" style="shape=tableRow;horizontal=0;startSize=0;swimlaneHead=0;swimlaneBody=0;fillColor=none;collapsible=0;dropTarget=0;points=[[0,0.5],[1,0.5]];portConstraint=eastwest;top=0;left=0;right=0;bottom=0;" vertex="1" parent="iHrK704BYx2xCR8LHmUj-238">
          <mxGeometry y="25" width="338" height="45" as="geometry" />
        </mxCell>
        <mxCell id="iHrK704BYx2xCR8LHmUj-240" value="NUMBER" style="shape=partialRectangle;connectable=0;fillColor=none;top=0;left=0;bottom=0;right=0;align=left;spacingLeft=2;overflow=hidden;fontSize=11;" vertex="1" parent="iHrK704BYx2xCR8LHmUj-239">
          <mxGeometry width="48" height="45" as="geometry">
            <mxRectangle width="48" height="45" as="alternateBounds" />
          </mxGeometry>
        </mxCell>
        <mxCell id="iHrK704BYx2xCR8LHmUj-241" value="employee_id" style="shape=partialRectangle;connectable=0;fillColor=none;top=0;left=0;bottom=0;right=0;align=left;spacingLeft=2;overflow=hidden;fontSize=11;" vertex="1" parent="iHrK704BYx2xCR8LHmUj-239">
          <mxGeometry x="48" width="268" height="45" as="geometry">
            <mxRectangle width="268" height="45" as="alternateBounds" />
          </mxGeometry>
        </mxCell>
        <mxCell id="iHrK704BYx2xCR8LHmUj-242" value="PK" style="shape=partialRectangle;connectable=0;fillColor=none;top=0;left=0;bottom=0;right=0;align=left;spacingLeft=2;overflow=hidden;fontSize=11;" vertex="1" parent="iHrK704BYx2xCR8LHmUj-239">
          <mxGeometry x="316" width="22" height="45" as="geometry">
            <mxRectangle width="22" height="45" as="alternateBounds" />
          </mxGeometry>
        </mxCell>
        <mxCell id="iHrK704BYx2xCR8LHmUj-243" style="shape=tableRow;horizontal=0;startSize=0;swimlaneHead=0;swimlaneBody=0;fillColor=none;collapsible=0;dropTarget=0;points=[[0,0.5],[1,0.5]];portConstraint=eastwest;top=0;left=0;right=0;bottom=0;" vertex="1" parent="iHrK704BYx2xCR8LHmUj-238">
          <mxGeometry y="70" width="338" height="45" as="geometry" />
        </mxCell>
        <mxCell id="iHrK704BYx2xCR8LHmUj-244" value="VARCHAR2" style="shape=partialRectangle;connectable=0;fillColor=none;top=0;left=0;bottom=0;right=0;align=left;spacingLeft=2;overflow=hidden;fontSize=11;" vertex="1" parent="iHrK704BYx2xCR8LHmUj-243">
          <mxGeometry width="48" height="45" as="geometry">
            <mxRectangle width="48" height="45" as="alternateBounds" />
          </mxGeometry>
        </mxCell>
        <mxCell id="iHrK704BYx2xCR8LHmUj-245" value="first_name" style="shape=partialRectangle;connectable=0;fillColor=none;top=0;left=0;bottom=0;right=0;align=left;spacingLeft=2;overflow=hidden;fontSize=11;" vertex="1" parent="iHrK704BYx2xCR8LHmUj-243">
          <mxGeometry x="48" width="268" height="45" as="geometry">
            <mxRectangle width="268" height="45" as="alternateBounds" />
          </mxGeometry>
        </mxCell>
        <mxCell id="iHrK704BYx2xCR8LHmUj-246" value="" style="shape=partialRectangle;connectable=0;fillColor=none;top=0;left=0;bottom=0;right=0;align=left;spacingLeft=2;overflow=hidden;fontSize=11;" vertex="1" parent="iHrK704BYx2xCR8LHmUj-243">
          <mxGeometry x="316" width="22" height="45" as="geometry">
            <mxRectangle width="22" height="45" as="alternateBounds" />
          </mxGeometry>
        </mxCell>
        <mxCell id="iHrK704BYx2xCR8LHmUj-247" style="shape=tableRow;horizontal=0;startSize=0;swimlaneHead=0;swimlaneBody=0;fillColor=none;collapsible=0;dropTarget=0;points=[[0,0.5],[1,0.5]];portConstraint=eastwest;top=0;left=0;right=0;bottom=0;" vertex="1" parent="iHrK704BYx2xCR8LHmUj-238">
          <mxGeometry y="115" width="338" height="45" as="geometry" />
        </mxCell>
        <mxCell id="iHrK704BYx2xCR8LHmUj-248" value="VARCHAR2" style="shape=partialRectangle;connectable=0;fillColor=none;top=0;left=0;bottom=0;right=0;align=left;spacingLeft=2;overflow=hidden;fontSize=11;" vertex="1" parent="iHrK704BYx2xCR8LHmUj-247">
          <mxGeometry width="48" height="45" as="geometry">
            <mxRectangle width="48" height="45" as="alternateBounds" />
          </mxGeometry>
        </mxCell>
        <mxCell id="iHrK704BYx2xCR8LHmUj-249" value="last_name" style="shape=partialRectangle;connectable=0;fillColor=none;top=0;left=0;bottom=0;right=0;align=left;spacingLeft=2;overflow=hidden;fontSize=11;" vertex="1" parent="iHrK704BYx2xCR8LHmUj-247">
          <mxGeometry x="48" width="268" height="45" as="geometry">
            <mxRectangle width="268" height="45" as="alternateBounds" />
          </mxGeometry>
        </mxCell>
        <mxCell id="iHrK704BYx2xCR8LHmUj-250" value="" style="shape=partialRectangle;connectable=0;fillColor=none;top=0;left=0;bottom=0;right=0;align=left;spacingLeft=2;overflow=hidden;fontSize=11;" vertex="1" parent="iHrK704BYx2xCR8LHmUj-247">
          <mxGeometry x="316" width="22" height="45" as="geometry">
            <mxRectangle width="22" height="45" as="alternateBounds" />
          </mxGeometry>
        </mxCell>
        <mxCell id="iHrK704BYx2xCR8LHmUj-251" style="shape=tableRow;horizontal=0;startSize=0;swimlaneHead=0;swimlaneBody=0;fillColor=none;collapsible=0;dropTarget=0;points=[[0,0.5],[1,0.5]];portConstraint=eastwest;top=0;left=0;right=0;bottom=0;" vertex="1" parent="iHrK704BYx2xCR8LHmUj-238">
          <mxGeometry y="160" width="338" height="45" as="geometry" />
        </mxCell>
        <mxCell id="iHrK704BYx2xCR8LHmUj-252" value="VARCHAR2" style="shape=partialRectangle;connectable=0;fillColor=none;top=0;left=0;bottom=0;right=0;align=left;spacingLeft=2;overflow=hidden;fontSize=11;" vertex="1" parent="iHrK704BYx2xCR8LHmUj-251">
          <mxGeometry width="48" height="45" as="geometry">
            <mxRectangle width="48" height="45" as="alternateBounds" />
          </mxGeometry>
        </mxCell>
        <mxCell id="iHrK704BYx2xCR8LHmUj-253" value="employee_category" style="shape=partialRectangle;connectable=0;fillColor=none;top=0;left=0;bottom=0;right=0;align=left;spacingLeft=2;overflow=hidden;fontSize=11;" vertex="1" parent="iHrK704BYx2xCR8LHmUj-251">
          <mxGeometry x="48" width="268" height="45" as="geometry">
            <mxRectangle width="268" height="45" as="alternateBounds" />
          </mxGeometry>
        </mxCell>
        <mxCell id="iHrK704BYx2xCR8LHmUj-254" value="" style="shape=partialRectangle;connectable=0;fillColor=none;top=0;left=0;bottom=0;right=0;align=left;spacingLeft=2;overflow=hidden;fontSize=11;" vertex="1" parent="iHrK704BYx2xCR8LHmUj-251">
          <mxGeometry x="316" width="22" height="45" as="geometry">
            <mxRectangle width="22" height="45" as="alternateBounds" />
          </mxGeometry>
        </mxCell>
        <mxCell id="iHrK704BYx2xCR8LHmUj-255" style="shape=tableRow;horizontal=0;startSize=0;swimlaneHead=0;swimlaneBody=0;fillColor=none;collapsible=0;dropTarget=0;points=[[0,0.5],[1,0.5]];portConstraint=eastwest;top=0;left=0;right=0;bottom=0;" vertex="1" parent="iHrK704BYx2xCR8LHmUj-238">
          <mxGeometry y="205" width="338" height="45" as="geometry" />
        </mxCell>
        <mxCell id="iHrK704BYx2xCR8LHmUj-256" value="VARCHAR2" style="shape=partialRectangle;connectable=0;fillColor=none;top=0;left=0;bottom=0;right=0;align=left;spacingLeft=2;overflow=hidden;fontSize=11;" vertex="1" parent="iHrK704BYx2xCR8LHmUj-255">
          <mxGeometry width="48" height="45" as="geometry">
            <mxRectangle width="48" height="45" as="alternateBounds" />
          </mxGeometry>
        </mxCell>
        <mxCell id="iHrK704BYx2xCR8LHmUj-257" value="compulsory_union_code" style="shape=partialRectangle;connectable=0;fillColor=none;top=0;left=0;bottom=0;right=0;align=left;spacingLeft=2;overflow=hidden;fontSize=11;" vertex="1" parent="iHrK704BYx2xCR8LHmUj-255">
          <mxGeometry x="48" width="268" height="45" as="geometry">
            <mxRectangle width="268" height="45" as="alternateBounds" />
          </mxGeometry>
        </mxCell>
        <mxCell id="iHrK704BYx2xCR8LHmUj-258" value="" style="shape=partialRectangle;connectable=0;fillColor=none;top=0;left=0;bottom=0;right=0;align=left;spacingLeft=2;overflow=hidden;fontSize=11;" vertex="1" parent="iHrK704BYx2xCR8LHmUj-255">
          <mxGeometry x="316" width="22" height="45" as="geometry">
            <mxRectangle width="22" height="45" as="alternateBounds" />
          </mxGeometry>
        </mxCell>
        <mxCell id="iHrK704BYx2xCR8LHmUj-259" style="shape=tableRow;horizontal=0;startSize=0;swimlaneHead=0;swimlaneBody=0;fillColor=none;collapsible=0;dropTarget=0;points=[[0,0.5],[1,0.5]];portConstraint=eastwest;top=0;left=0;right=0;bottom=0;" vertex="1" parent="iHrK704BYx2xCR8LHmUj-238">
          <mxGeometry y="250" width="338" height="45" as="geometry" />
        </mxCell>
        <mxCell id="iHrK704BYx2xCR8LHmUj-260" value="NUMBER" style="shape=partialRectangle;connectable=0;fillColor=none;top=0;left=0;bottom=0;right=0;align=left;spacingLeft=2;overflow=hidden;fontSize=11;" vertex="1" parent="iHrK704BYx2xCR8LHmUj-259">
          <mxGeometry width="48" height="45" as="geometry">
            <mxRectangle width="48" height="45" as="alternateBounds" />
          </mxGeometry>
        </mxCell>
        <mxCell id="iHrK704BYx2xCR8LHmUj-261" value="termination_month" style="shape=partialRectangle;connectable=0;fillColor=none;top=0;left=0;bottom=0;right=0;align=left;spacingLeft=2;overflow=hidden;fontSize=11;" vertex="1" parent="iHrK704BYx2xCR8LHmUj-259">
          <mxGeometry x="48" width="268" height="45" as="geometry">
            <mxRectangle width="268" height="45" as="alternateBounds" />
          </mxGeometry>
        </mxCell>
        <mxCell id="iHrK704BYx2xCR8LHmUj-262" value="" style="shape=partialRectangle;connectable=0;fillColor=none;top=0;left=0;bottom=0;right=0;align=left;spacingLeft=2;overflow=hidden;fontSize=11;" vertex="1" parent="iHrK704BYx2xCR8LHmUj-259">
          <mxGeometry x="316" width="22" height="45" as="geometry">
            <mxRectangle width="22" height="45" as="alternateBounds" />
          </mxGeometry>
        </mxCell>
        <mxCell id="iHrK704BYx2xCR8LHmUj-263" style="shape=tableRow;horizontal=0;startSize=0;swimlaneHead=0;swimlaneBody=0;fillColor=none;collapsible=0;dropTarget=0;points=[[0,0.5],[1,0.5]];portConstraint=eastwest;top=0;left=0;right=0;bottom=0;" vertex="1" parent="iHrK704BYx2xCR8LHmUj-238">
          <mxGeometry y="295" width="338" height="45" as="geometry" />
        </mxCell>
        <mxCell id="iHrK704BYx2xCR8LHmUj-264" value="NUMBER" style="shape=partialRectangle;connectable=0;fillColor=none;top=0;left=0;bottom=0;right=0;align=left;spacingLeft=2;overflow=hidden;fontSize=11;" vertex="1" parent="iHrK704BYx2xCR8LHmUj-263">
          <mxGeometry width="48" height="45" as="geometry">
            <mxRectangle width="48" height="45" as="alternateBounds" />
          </mxGeometry>
        </mxCell>
        <mxCell id="iHrK704BYx2xCR8LHmUj-265" value="termination_year" style="shape=partialRectangle;connectable=0;fillColor=none;top=0;left=0;bottom=0;right=0;align=left;spacingLeft=2;overflow=hidden;fontSize=11;" vertex="1" parent="iHrK704BYx2xCR8LHmUj-263">
          <mxGeometry x="48" width="268" height="45" as="geometry">
            <mxRectangle width="268" height="45" as="alternateBounds" />
          </mxGeometry>
        </mxCell>
        <mxCell id="iHrK704BYx2xCR8LHmUj-266" value="" style="shape=partialRectangle;connectable=0;fillColor=none;top=0;left=0;bottom=0;right=0;align=left;spacingLeft=2;overflow=hidden;fontSize=11;" vertex="1" parent="iHrK704BYx2xCR8LHmUj-263">
          <mxGeometry x="316" width="22" height="45" as="geometry">
            <mxRectangle width="22" height="45" as="alternateBounds" />
          </mxGeometry>
        </mxCell>
        <mxCell id="iHrK704BYx2xCR8LHmUj-267" value="DEPARTMENTS" style="shape=table;startSize=25;container=1;collapsible=0;childLayout=tableLayout;fixedRows=1;rowLines=1;fontStyle=1;align=center;resizeLast=1;" vertex="1" parent="1">
          <mxGeometry x="498" y="127" width="299" height="129" as="geometry" />
        </mxCell>
        <mxCell id="iHrK704BYx2xCR8LHmUj-268" style="shape=tableRow;horizontal=0;startSize=0;swimlaneHead=0;swimlaneBody=0;fillColor=none;collapsible=0;dropTarget=0;points=[[0,0.5],[1,0.5]];portConstraint=eastwest;top=0;left=0;right=0;bottom=0;" vertex="1" parent="iHrK704BYx2xCR8LHmUj-267">
          <mxGeometry y="25" width="299" height="52" as="geometry" />
        </mxCell>
        <mxCell id="iHrK704BYx2xCR8LHmUj-269" value="NUMBER" style="shape=partialRectangle;connectable=0;fillColor=none;top=0;left=0;bottom=0;right=0;align=left;spacingLeft=2;overflow=hidden;fontSize=11;" vertex="1" parent="iHrK704BYx2xCR8LHmUj-268">
          <mxGeometry width="48" height="52" as="geometry">
            <mxRectangle width="48" height="52" as="alternateBounds" />
          </mxGeometry>
        </mxCell>
        <mxCell id="iHrK704BYx2xCR8LHmUj-270" value="department_id" style="shape=partialRectangle;connectable=0;fillColor=none;top=0;left=0;bottom=0;right=0;align=left;spacingLeft=2;overflow=hidden;fontSize=11;" vertex="1" parent="iHrK704BYx2xCR8LHmUj-268">
          <mxGeometry x="48" width="229" height="52" as="geometry">
            <mxRectangle width="229" height="52" as="alternateBounds" />
          </mxGeometry>
        </mxCell>
        <mxCell id="iHrK704BYx2xCR8LHmUj-271" value="PK" style="shape=partialRectangle;connectable=0;fillColor=none;top=0;left=0;bottom=0;right=0;align=left;spacingLeft=2;overflow=hidden;fontSize=11;" vertex="1" parent="iHrK704BYx2xCR8LHmUj-268">
          <mxGeometry x="277" width="22" height="52" as="geometry">
            <mxRectangle width="22" height="52" as="alternateBounds" />
          </mxGeometry>
        </mxCell>
        <mxCell id="iHrK704BYx2xCR8LHmUj-272" style="shape=tableRow;horizontal=0;startSize=0;swimlaneHead=0;swimlaneBody=0;fillColor=none;collapsible=0;dropTarget=0;points=[[0,0.5],[1,0.5]];portConstraint=eastwest;top=0;left=0;right=0;bottom=0;" vertex="1" parent="iHrK704BYx2xCR8LHmUj-267">
          <mxGeometry y="77" width="299" height="52" as="geometry" />
        </mxCell>
        <mxCell id="iHrK704BYx2xCR8LHmUj-273" value="VARCHAR2" style="shape=partialRectangle;connectable=0;fillColor=none;top=0;left=0;bottom=0;right=0;align=left;spacingLeft=2;overflow=hidden;fontSize=11;" vertex="1" parent="iHrK704BYx2xCR8LHmUj-272">
          <mxGeometry width="48" height="52" as="geometry">
            <mxRectangle width="48" height="52" as="alternateBounds" />
          </mxGeometry>
        </mxCell>
        <mxCell id="iHrK704BYx2xCR8LHmUj-274" value="department_name" style="shape=partialRectangle;connectable=0;fillColor=none;top=0;left=0;bottom=0;right=0;align=left;spacingLeft=2;overflow=hidden;fontSize=11;" vertex="1" parent="iHrK704BYx2xCR8LHmUj-272">
          <mxGeometry x="48" width="229" height="52" as="geometry">
            <mxRectangle width="229" height="52" as="alternateBounds" />
          </mxGeometry>
        </mxCell>
        <mxCell id="iHrK704BYx2xCR8LHmUj-275" value="" style="shape=partialRectangle;connectable=0;fillColor=none;top=0;left=0;bottom=0;right=0;align=left;spacingLeft=2;overflow=hidden;fontSize=11;" vertex="1" parent="iHrK704BYx2xCR8LHmUj-272">
          <mxGeometry x="277" width="22" height="52" as="geometry">
            <mxRectangle width="22" height="52" as="alternateBounds" />
          </mxGeometry>
        </mxCell>
        <mxCell id="iHrK704BYx2xCR8LHmUj-276" value="JOB_TITLES" style="shape=table;startSize=25;container=1;collapsible=0;childLayout=tableLayout;fixedRows=1;rowLines=1;fontStyle=1;align=center;resizeLast=1;" vertex="1" parent="1">
          <mxGeometry x="937" y="127" width="233" height="129" as="geometry" />
        </mxCell>
        <mxCell id="iHrK704BYx2xCR8LHmUj-277" style="shape=tableRow;horizontal=0;startSize=0;swimlaneHead=0;swimlaneBody=0;fillColor=none;collapsible=0;dropTarget=0;points=[[0,0.5],[1,0.5]];portConstraint=eastwest;top=0;left=0;right=0;bottom=0;" vertex="1" parent="iHrK704BYx2xCR8LHmUj-276">
          <mxGeometry y="25" width="233" height="52" as="geometry" />
        </mxCell>
        <mxCell id="iHrK704BYx2xCR8LHmUj-278" value="VARCHAR2" style="shape=partialRectangle;connectable=0;fillColor=none;top=0;left=0;bottom=0;right=0;align=left;spacingLeft=2;overflow=hidden;fontSize=11;" vertex="1" parent="iHrK704BYx2xCR8LHmUj-277">
          <mxGeometry width="48" height="52" as="geometry">
            <mxRectangle width="48" height="52" as="alternateBounds" />
          </mxGeometry>
        </mxCell>
        <mxCell id="iHrK704BYx2xCR8LHmUj-279" value="job_code" style="shape=partialRectangle;connectable=0;fillColor=none;top=0;left=0;bottom=0;right=0;align=left;spacingLeft=2;overflow=hidden;fontSize=11;" vertex="1" parent="iHrK704BYx2xCR8LHmUj-277">
          <mxGeometry x="48" width="163" height="52" as="geometry">
            <mxRectangle width="163" height="52" as="alternateBounds" />
          </mxGeometry>
        </mxCell>
        <mxCell id="iHrK704BYx2xCR8LHmUj-280" value="PK" style="shape=partialRectangle;connectable=0;fillColor=none;top=0;left=0;bottom=0;right=0;align=left;spacingLeft=2;overflow=hidden;fontSize=11;" vertex="1" parent="iHrK704BYx2xCR8LHmUj-277">
          <mxGeometry x="211" width="22" height="52" as="geometry">
            <mxRectangle width="22" height="52" as="alternateBounds" />
          </mxGeometry>
        </mxCell>
        <mxCell id="iHrK704BYx2xCR8LHmUj-281" style="shape=tableRow;horizontal=0;startSize=0;swimlaneHead=0;swimlaneBody=0;fillColor=none;collapsible=0;dropTarget=0;points=[[0,0.5],[1,0.5]];portConstraint=eastwest;top=0;left=0;right=0;bottom=0;" vertex="1" parent="iHrK704BYx2xCR8LHmUj-276">
          <mxGeometry y="77" width="233" height="52" as="geometry" />
        </mxCell>
        <mxCell id="iHrK704BYx2xCR8LHmUj-282" value="VARCHAR2" style="shape=partialRectangle;connectable=0;fillColor=none;top=0;left=0;bottom=0;right=0;align=left;spacingLeft=2;overflow=hidden;fontSize=11;" vertex="1" parent="iHrK704BYx2xCR8LHmUj-281">
          <mxGeometry width="48" height="52" as="geometry">
            <mxRectangle width="48" height="52" as="alternateBounds" />
          </mxGeometry>
        </mxCell>
        <mxCell id="iHrK704BYx2xCR8LHmUj-283" value="title" style="shape=partialRectangle;connectable=0;fillColor=none;top=0;left=0;bottom=0;right=0;align=left;spacingLeft=2;overflow=hidden;fontSize=11;" vertex="1" parent="iHrK704BYx2xCR8LHmUj-281">
          <mxGeometry x="48" width="163" height="52" as="geometry">
            <mxRectangle width="163" height="52" as="alternateBounds" />
          </mxGeometry>
        </mxCell>
        <mxCell id="iHrK704BYx2xCR8LHmUj-284" value="" style="shape=partialRectangle;connectable=0;fillColor=none;top=0;left=0;bottom=0;right=0;align=left;spacingLeft=2;overflow=hidden;fontSize=11;" vertex="1" parent="iHrK704BYx2xCR8LHmUj-281">
          <mxGeometry x="211" width="22" height="52" as="geometry">
            <mxRectangle width="22" height="52" as="alternateBounds" />
          </mxGeometry>
        </mxCell>
        <mxCell id="iHrK704BYx2xCR8LHmUj-285" value="EARNINGS" style="shape=table;startSize=25;container=1;collapsible=0;childLayout=tableLayout;fixedRows=1;rowLines=1;fontStyle=1;align=center;resizeLast=1;" vertex="1" parent="1">
          <mxGeometry x="452" y="465" width="391" height="641" as="geometry" />
        </mxCell>
        <mxCell id="iHrK704BYx2xCR8LHmUj-286" style="shape=tableRow;horizontal=0;startSize=0;swimlaneHead=0;swimlaneBody=0;fillColor=none;collapsible=0;dropTarget=0;points=[[0,0.5],[1,0.5]];portConstraint=eastwest;top=0;left=0;right=0;bottom=0;" vertex="1" parent="iHrK704BYx2xCR8LHmUj-285">
          <mxGeometry y="25" width="391" height="44" as="geometry" />
        </mxCell>
        <mxCell id="iHrK704BYx2xCR8LHmUj-287" value="NUMBER" style="shape=partialRectangle;connectable=0;fillColor=none;top=0;left=0;bottom=0;right=0;align=left;spacingLeft=2;overflow=hidden;fontSize=11;" vertex="1" parent="iHrK704BYx2xCR8LHmUj-286">
          <mxGeometry width="48" height="44" as="geometry">
            <mxRectangle width="48" height="44" as="alternateBounds" />
          </mxGeometry>
        </mxCell>
        <mxCell id="iHrK704BYx2xCR8LHmUj-288" value="earning_id" style="shape=partialRectangle;connectable=0;fillColor=none;top=0;left=0;bottom=0;right=0;align=left;spacingLeft=2;overflow=hidden;fontSize=11;" vertex="1" parent="iHrK704BYx2xCR8LHmUj-286">
          <mxGeometry x="48" width="321" height="44" as="geometry">
            <mxRectangle width="321" height="44" as="alternateBounds" />
          </mxGeometry>
        </mxCell>
        <mxCell id="iHrK704BYx2xCR8LHmUj-289" value="PK" style="shape=partialRectangle;connectable=0;fillColor=none;top=0;left=0;bottom=0;right=0;align=left;spacingLeft=2;overflow=hidden;fontSize=11;" vertex="1" parent="iHrK704BYx2xCR8LHmUj-286">
          <mxGeometry x="369" width="22" height="44" as="geometry">
            <mxRectangle width="22" height="44" as="alternateBounds" />
          </mxGeometry>
        </mxCell>
        <mxCell id="iHrK704BYx2xCR8LHmUj-290" style="shape=tableRow;horizontal=0;startSize=0;swimlaneHead=0;swimlaneBody=0;fillColor=none;collapsible=0;dropTarget=0;points=[[0,0.5],[1,0.5]];portConstraint=eastwest;top=0;left=0;right=0;bottom=0;" vertex="1" parent="iHrK704BYx2xCR8LHmUj-285">
          <mxGeometry y="69" width="391" height="44" as="geometry" />
        </mxCell>
        <mxCell id="iHrK704BYx2xCR8LHmUj-291" value="NUMBER" style="shape=partialRectangle;connectable=0;fillColor=none;top=0;left=0;bottom=0;right=0;align=left;spacingLeft=2;overflow=hidden;fontSize=11;" vertex="1" parent="iHrK704BYx2xCR8LHmUj-290">
          <mxGeometry width="48" height="44" as="geometry">
            <mxRectangle width="48" height="44" as="alternateBounds" />
          </mxGeometry>
        </mxCell>
        <mxCell id="iHrK704BYx2xCR8LHmUj-292" value="employee_id" style="shape=partialRectangle;connectable=0;fillColor=none;top=0;left=0;bottom=0;right=0;align=left;spacingLeft=2;overflow=hidden;fontSize=11;" vertex="1" parent="iHrK704BYx2xCR8LHmUj-290">
          <mxGeometry x="48" width="321" height="44" as="geometry">
            <mxRectangle width="321" height="44" as="alternateBounds" />
          </mxGeometry>
        </mxCell>
        <mxCell id="iHrK704BYx2xCR8LHmUj-293" value="FK" style="shape=partialRectangle;connectable=0;fillColor=none;top=0;left=0;bottom=0;right=0;align=left;spacingLeft=2;overflow=hidden;fontSize=11;" vertex="1" parent="iHrK704BYx2xCR8LHmUj-290">
          <mxGeometry x="369" width="22" height="44" as="geometry">
            <mxRectangle width="22" height="44" as="alternateBounds" />
          </mxGeometry>
        </mxCell>
        <mxCell id="iHrK704BYx2xCR8LHmUj-294" style="shape=tableRow;horizontal=0;startSize=0;swimlaneHead=0;swimlaneBody=0;fillColor=none;collapsible=0;dropTarget=0;points=[[0,0.5],[1,0.5]];portConstraint=eastwest;top=0;left=0;right=0;bottom=0;" vertex="1" parent="iHrK704BYx2xCR8LHmUj-285">
          <mxGeometry y="113" width="391" height="44" as="geometry" />
        </mxCell>
        <mxCell id="iHrK704BYx2xCR8LHmUj-295" value="NUMBER" style="shape=partialRectangle;connectable=0;fillColor=none;top=0;left=0;bottom=0;right=0;align=left;spacingLeft=2;overflow=hidden;fontSize=11;" vertex="1" parent="iHrK704BYx2xCR8LHmUj-294">
          <mxGeometry width="48" height="44" as="geometry">
            <mxRectangle width="48" height="44" as="alternateBounds" />
          </mxGeometry>
        </mxCell>
        <mxCell id="iHrK704BYx2xCR8LHmUj-296" value="department_id" style="shape=partialRectangle;connectable=0;fillColor=none;top=0;left=0;bottom=0;right=0;align=left;spacingLeft=2;overflow=hidden;fontSize=11;" vertex="1" parent="iHrK704BYx2xCR8LHmUj-294">
          <mxGeometry x="48" width="321" height="44" as="geometry">
            <mxRectangle width="321" height="44" as="alternateBounds" />
          </mxGeometry>
        </mxCell>
        <mxCell id="iHrK704BYx2xCR8LHmUj-297" value="FK" style="shape=partialRectangle;connectable=0;fillColor=none;top=0;left=0;bottom=0;right=0;align=left;spacingLeft=2;overflow=hidden;fontSize=11;" vertex="1" parent="iHrK704BYx2xCR8LHmUj-294">
          <mxGeometry x="369" width="22" height="44" as="geometry">
            <mxRectangle width="22" height="44" as="alternateBounds" />
          </mxGeometry>
        </mxCell>
        <mxCell id="iHrK704BYx2xCR8LHmUj-298" style="shape=tableRow;horizontal=0;startSize=0;swimlaneHead=0;swimlaneBody=0;fillColor=none;collapsible=0;dropTarget=0;points=[[0,0.5],[1,0.5]];portConstraint=eastwest;top=0;left=0;right=0;bottom=0;" vertex="1" parent="iHrK704BYx2xCR8LHmUj-285">
          <mxGeometry y="157" width="391" height="44" as="geometry" />
        </mxCell>
        <mxCell id="iHrK704BYx2xCR8LHmUj-299" value="VARCHAR2" style="shape=partialRectangle;connectable=0;fillColor=none;top=0;left=0;bottom=0;right=0;align=left;spacingLeft=2;overflow=hidden;fontSize=11;" vertex="1" parent="iHrK704BYx2xCR8LHmUj-298">
          <mxGeometry width="48" height="44" as="geometry">
            <mxRectangle width="48" height="44" as="alternateBounds" />
          </mxGeometry>
        </mxCell>
        <mxCell id="iHrK704BYx2xCR8LHmUj-300" value="job_code" style="shape=partialRectangle;connectable=0;fillColor=none;top=0;left=0;bottom=0;right=0;align=left;spacingLeft=2;overflow=hidden;fontSize=11;" vertex="1" parent="iHrK704BYx2xCR8LHmUj-298">
          <mxGeometry x="48" width="321" height="44" as="geometry">
            <mxRectangle width="321" height="44" as="alternateBounds" />
          </mxGeometry>
        </mxCell>
        <mxCell id="iHrK704BYx2xCR8LHmUj-301" value="FK" style="shape=partialRectangle;connectable=0;fillColor=none;top=0;left=0;bottom=0;right=0;align=left;spacingLeft=2;overflow=hidden;fontSize=11;" vertex="1" parent="iHrK704BYx2xCR8LHmUj-298">
          <mxGeometry x="369" width="22" height="44" as="geometry">
            <mxRectangle width="22" height="44" as="alternateBounds" />
          </mxGeometry>
        </mxCell>
        <mxCell id="iHrK704BYx2xCR8LHmUj-302" style="shape=tableRow;horizontal=0;startSize=0;swimlaneHead=0;swimlaneBody=0;fillColor=none;collapsible=0;dropTarget=0;points=[[0,0.5],[1,0.5]];portConstraint=eastwest;top=0;left=0;right=0;bottom=0;" vertex="1" parent="iHrK704BYx2xCR8LHmUj-285">
          <mxGeometry y="201" width="391" height="44" as="geometry" />
        </mxCell>
        <mxCell id="iHrK704BYx2xCR8LHmUj-303" value="NUMBER" style="shape=partialRectangle;connectable=0;fillColor=none;top=0;left=0;bottom=0;right=0;align=left;spacingLeft=2;overflow=hidden;fontSize=11;" vertex="1" parent="iHrK704BYx2xCR8LHmUj-302">
          <mxGeometry width="48" height="44" as="geometry">
            <mxRectangle width="48" height="44" as="alternateBounds" />
          </mxGeometry>
        </mxCell>
        <mxCell id="iHrK704BYx2xCR8LHmUj-304" value="calendar_year" style="shape=partialRectangle;connectable=0;fillColor=none;top=0;left=0;bottom=0;right=0;align=left;spacingLeft=2;overflow=hidden;fontSize=11;" vertex="1" parent="iHrK704BYx2xCR8LHmUj-302">
          <mxGeometry x="48" width="321" height="44" as="geometry">
            <mxRectangle width="321" height="44" as="alternateBounds" />
          </mxGeometry>
        </mxCell>
        <mxCell id="iHrK704BYx2xCR8LHmUj-305" value="" style="shape=partialRectangle;connectable=0;fillColor=none;top=0;left=0;bottom=0;right=0;align=left;spacingLeft=2;overflow=hidden;fontSize=11;" vertex="1" parent="iHrK704BYx2xCR8LHmUj-302">
          <mxGeometry x="369" width="22" height="44" as="geometry">
            <mxRectangle width="22" height="44" as="alternateBounds" />
          </mxGeometry>
        </mxCell>
        <mxCell id="iHrK704BYx2xCR8LHmUj-306" style="shape=tableRow;horizontal=0;startSize=0;swimlaneHead=0;swimlaneBody=0;fillColor=none;collapsible=0;dropTarget=0;points=[[0,0.5],[1,0.5]];portConstraint=eastwest;top=0;left=0;right=0;bottom=0;" vertex="1" parent="iHrK704BYx2xCR8LHmUj-285">
          <mxGeometry y="245" width="391" height="44" as="geometry" />
        </mxCell>
        <mxCell id="iHrK704BYx2xCR8LHmUj-307" value="NUMBER" style="shape=partialRectangle;connectable=0;fillColor=none;top=0;left=0;bottom=0;right=0;align=left;spacingLeft=2;overflow=hidden;fontSize=11;" vertex="1" parent="iHrK704BYx2xCR8LHmUj-306">
          <mxGeometry width="48" height="44" as="geometry">
            <mxRectangle width="48" height="44" as="alternateBounds" />
          </mxGeometry>
        </mxCell>
        <mxCell id="iHrK704BYx2xCR8LHmUj-308" value="quarter" style="shape=partialRectangle;connectable=0;fillColor=none;top=0;left=0;bottom=0;right=0;align=left;spacingLeft=2;overflow=hidden;fontSize=11;" vertex="1" parent="iHrK704BYx2xCR8LHmUj-306">
          <mxGeometry x="48" width="321" height="44" as="geometry">
            <mxRectangle width="321" height="44" as="alternateBounds" />
          </mxGeometry>
        </mxCell>
        <mxCell id="iHrK704BYx2xCR8LHmUj-309" value="" style="shape=partialRectangle;connectable=0;fillColor=none;top=0;left=0;bottom=0;right=0;align=left;spacingLeft=2;overflow=hidden;fontSize=11;" vertex="1" parent="iHrK704BYx2xCR8LHmUj-306">
          <mxGeometry x="369" width="22" height="44" as="geometry">
            <mxRectangle width="22" height="44" as="alternateBounds" />
          </mxGeometry>
        </mxCell>
        <mxCell id="iHrK704BYx2xCR8LHmUj-310" style="shape=tableRow;horizontal=0;startSize=0;swimlaneHead=0;swimlaneBody=0;fillColor=none;collapsible=0;dropTarget=0;points=[[0,0.5],[1,0.5]];portConstraint=eastwest;top=0;left=0;right=0;bottom=0;" vertex="1" parent="iHrK704BYx2xCR8LHmUj-285">
          <mxGeometry y="289" width="391" height="44" as="geometry" />
        </mxCell>
        <mxCell id="iHrK704BYx2xCR8LHmUj-311" value="NUMBER" style="shape=partialRectangle;connectable=0;fillColor=none;top=0;left=0;bottom=0;right=0;align=left;spacingLeft=2;overflow=hidden;fontSize=11;" vertex="1" parent="iHrK704BYx2xCR8LHmUj-310">
          <mxGeometry width="48" height="44" as="geometry">
            <mxRectangle width="48" height="44" as="alternateBounds" />
          </mxGeometry>
        </mxCell>
        <mxCell id="iHrK704BYx2xCR8LHmUj-312" value="base_salary" style="shape=partialRectangle;connectable=0;fillColor=none;top=0;left=0;bottom=0;right=0;align=left;spacingLeft=2;overflow=hidden;fontSize=11;" vertex="1" parent="iHrK704BYx2xCR8LHmUj-310">
          <mxGeometry x="48" width="321" height="44" as="geometry">
            <mxRectangle width="321" height="44" as="alternateBounds" />
          </mxGeometry>
        </mxCell>
        <mxCell id="iHrK704BYx2xCR8LHmUj-313" value="" style="shape=partialRectangle;connectable=0;fillColor=none;top=0;left=0;bottom=0;right=0;align=left;spacingLeft=2;overflow=hidden;fontSize=11;" vertex="1" parent="iHrK704BYx2xCR8LHmUj-310">
          <mxGeometry x="369" width="22" height="44" as="geometry">
            <mxRectangle width="22" height="44" as="alternateBounds" />
          </mxGeometry>
        </mxCell>
        <mxCell id="iHrK704BYx2xCR8LHmUj-314" style="shape=tableRow;horizontal=0;startSize=0;swimlaneHead=0;swimlaneBody=0;fillColor=none;collapsible=0;dropTarget=0;points=[[0,0.5],[1,0.5]];portConstraint=eastwest;top=0;left=0;right=0;bottom=0;" vertex="1" parent="iHrK704BYx2xCR8LHmUj-285">
          <mxGeometry y="333" width="391" height="44" as="geometry" />
        </mxCell>
        <mxCell id="iHrK704BYx2xCR8LHmUj-315" value="VARCHAR2" style="shape=partialRectangle;connectable=0;fillColor=none;top=0;left=0;bottom=0;right=0;align=left;spacingLeft=2;overflow=hidden;fontSize=11;" vertex="1" parent="iHrK704BYx2xCR8LHmUj-314">
          <mxGeometry width="48" height="44" as="geometry">
            <mxRectangle width="48" height="44" as="alternateBounds" />
          </mxGeometry>
        </mxCell>
        <mxCell id="iHrK704BYx2xCR8LHmUj-316" value="salary_type" style="shape=partialRectangle;connectable=0;fillColor=none;top=0;left=0;bottom=0;right=0;align=left;spacingLeft=2;overflow=hidden;fontSize=11;" vertex="1" parent="iHrK704BYx2xCR8LHmUj-314">
          <mxGeometry x="48" width="321" height="44" as="geometry">
            <mxRectangle width="321" height="44" as="alternateBounds" />
          </mxGeometry>
        </mxCell>
        <mxCell id="iHrK704BYx2xCR8LHmUj-317" value="" style="shape=partialRectangle;connectable=0;fillColor=none;top=0;left=0;bottom=0;right=0;align=left;spacingLeft=2;overflow=hidden;fontSize=11;" vertex="1" parent="iHrK704BYx2xCR8LHmUj-314">
          <mxGeometry x="369" width="22" height="44" as="geometry">
            <mxRectangle width="22" height="44" as="alternateBounds" />
          </mxGeometry>
        </mxCell>
        <mxCell id="iHrK704BYx2xCR8LHmUj-318" style="shape=tableRow;horizontal=0;startSize=0;swimlaneHead=0;swimlaneBody=0;fillColor=none;collapsible=0;dropTarget=0;points=[[0,0.5],[1,0.5]];portConstraint=eastwest;top=0;left=0;right=0;bottom=0;" vertex="1" parent="iHrK704BYx2xCR8LHmUj-285">
          <mxGeometry y="377" width="391" height="44" as="geometry" />
        </mxCell>
        <mxCell id="iHrK704BYx2xCR8LHmUj-319" value="NUMBER" style="shape=partialRectangle;connectable=0;fillColor=none;top=0;left=0;bottom=0;right=0;align=left;spacingLeft=2;overflow=hidden;fontSize=11;" vertex="1" parent="iHrK704BYx2xCR8LHmUj-318">
          <mxGeometry width="48" height="44" as="geometry">
            <mxRectangle width="48" height="44" as="alternateBounds" />
          </mxGeometry>
        </mxCell>
        <mxCell id="iHrK704BYx2xCR8LHmUj-320" value="overtime_gross_pay_qtd" style="shape=partialRectangle;connectable=0;fillColor=none;top=0;left=0;bottom=0;right=0;align=left;spacingLeft=2;overflow=hidden;fontSize=11;" vertex="1" parent="iHrK704BYx2xCR8LHmUj-318">
          <mxGeometry x="48" width="321" height="44" as="geometry">
            <mxRectangle width="321" height="44" as="alternateBounds" />
          </mxGeometry>
        </mxCell>
        <mxCell id="iHrK704BYx2xCR8LHmUj-321" value="" style="shape=partialRectangle;connectable=0;fillColor=none;top=0;left=0;bottom=0;right=0;align=left;spacingLeft=2;overflow=hidden;fontSize=11;" vertex="1" parent="iHrK704BYx2xCR8LHmUj-318">
          <mxGeometry x="369" width="22" height="44" as="geometry">
            <mxRectangle width="22" height="44" as="alternateBounds" />
          </mxGeometry>
        </mxCell>
        <mxCell id="iHrK704BYx2xCR8LHmUj-322" style="shape=tableRow;horizontal=0;startSize=0;swimlaneHead=0;swimlaneBody=0;fillColor=none;collapsible=0;dropTarget=0;points=[[0,0.5],[1,0.5]];portConstraint=eastwest;top=0;left=0;right=0;bottom=0;" vertex="1" parent="iHrK704BYx2xCR8LHmUj-285">
          <mxGeometry y="421" width="391" height="44" as="geometry" />
        </mxCell>
        <mxCell id="iHrK704BYx2xCR8LHmUj-323" value="NUMBER" style="shape=partialRectangle;connectable=0;fillColor=none;top=0;left=0;bottom=0;right=0;align=left;spacingLeft=2;overflow=hidden;fontSize=11;" vertex="1" parent="iHrK704BYx2xCR8LHmUj-322">
          <mxGeometry width="48" height="44" as="geometry">
            <mxRectangle width="48" height="44" as="alternateBounds" />
          </mxGeometry>
        </mxCell>
        <mxCell id="iHrK704BYx2xCR8LHmUj-324" value="base_gross_pay_qtd" style="shape=partialRectangle;connectable=0;fillColor=none;top=0;left=0;bottom=0;right=0;align=left;spacingLeft=2;overflow=hidden;fontSize=11;" vertex="1" parent="iHrK704BYx2xCR8LHmUj-322">
          <mxGeometry x="48" width="321" height="44" as="geometry">
            <mxRectangle width="321" height="44" as="alternateBounds" />
          </mxGeometry>
        </mxCell>
        <mxCell id="iHrK704BYx2xCR8LHmUj-325" value="" style="shape=partialRectangle;connectable=0;fillColor=none;top=0;left=0;bottom=0;right=0;align=left;spacingLeft=2;overflow=hidden;fontSize=11;" vertex="1" parent="iHrK704BYx2xCR8LHmUj-322">
          <mxGeometry x="369" width="22" height="44" as="geometry">
            <mxRectangle width="22" height="44" as="alternateBounds" />
          </mxGeometry>
        </mxCell>
        <mxCell id="iHrK704BYx2xCR8LHmUj-326" style="shape=tableRow;horizontal=0;startSize=0;swimlaneHead=0;swimlaneBody=0;fillColor=none;collapsible=0;dropTarget=0;points=[[0,0.5],[1,0.5]];portConstraint=eastwest;top=0;left=0;right=0;bottom=0;" vertex="1" parent="iHrK704BYx2xCR8LHmUj-285">
          <mxGeometry y="465" width="391" height="44" as="geometry" />
        </mxCell>
        <mxCell id="iHrK704BYx2xCR8LHmUj-327" value="NUMBER" style="shape=partialRectangle;connectable=0;fillColor=none;top=0;left=0;bottom=0;right=0;align=left;spacingLeft=2;overflow=hidden;fontSize=11;" vertex="1" parent="iHrK704BYx2xCR8LHmUj-326">
          <mxGeometry width="48" height="44" as="geometry">
            <mxRectangle width="48" height="44" as="alternateBounds" />
          </mxGeometry>
        </mxCell>
        <mxCell id="iHrK704BYx2xCR8LHmUj-328" value="longevity_gross_pay_qtd" style="shape=partialRectangle;connectable=0;fillColor=none;top=0;left=0;bottom=0;right=0;align=left;spacingLeft=2;overflow=hidden;fontSize=11;" vertex="1" parent="iHrK704BYx2xCR8LHmUj-326">
          <mxGeometry x="48" width="321" height="44" as="geometry">
            <mxRectangle width="321" height="44" as="alternateBounds" />
          </mxGeometry>
        </mxCell>
        <mxCell id="iHrK704BYx2xCR8LHmUj-329" value="" style="shape=partialRectangle;connectable=0;fillColor=none;top=0;left=0;bottom=0;right=0;align=left;spacingLeft=2;overflow=hidden;fontSize=11;" vertex="1" parent="iHrK704BYx2xCR8LHmUj-326">
          <mxGeometry x="369" width="22" height="44" as="geometry">
            <mxRectangle width="22" height="44" as="alternateBounds" />
          </mxGeometry>
        </mxCell>
        <mxCell id="iHrK704BYx2xCR8LHmUj-330" style="shape=tableRow;horizontal=0;startSize=0;swimlaneHead=0;swimlaneBody=0;fillColor=none;collapsible=0;dropTarget=0;points=[[0,0.5],[1,0.5]];portConstraint=eastwest;top=0;left=0;right=0;bottom=0;" vertex="1" parent="iHrK704BYx2xCR8LHmUj-285">
          <mxGeometry y="509" width="391" height="44" as="geometry" />
        </mxCell>
        <mxCell id="iHrK704BYx2xCR8LHmUj-331" value="NUMBER" style="shape=partialRectangle;connectable=0;fillColor=none;top=0;left=0;bottom=0;right=0;align=left;spacingLeft=2;overflow=hidden;fontSize=11;" vertex="1" parent="iHrK704BYx2xCR8LHmUj-330">
          <mxGeometry width="48" height="44" as="geometry">
            <mxRectangle width="48" height="44" as="alternateBounds" />
          </mxGeometry>
        </mxCell>
        <mxCell id="iHrK704BYx2xCR8LHmUj-332" value="post_separation_gross_pay_qtd" style="shape=partialRectangle;connectable=0;fillColor=none;top=0;left=0;bottom=0;right=0;align=left;spacingLeft=2;overflow=hidden;fontSize=11;" vertex="1" parent="iHrK704BYx2xCR8LHmUj-330">
          <mxGeometry x="48" width="321" height="44" as="geometry">
            <mxRectangle width="321" height="44" as="alternateBounds" />
          </mxGeometry>
        </mxCell>
        <mxCell id="iHrK704BYx2xCR8LHmUj-333" value="" style="shape=partialRectangle;connectable=0;fillColor=none;top=0;left=0;bottom=0;right=0;align=left;spacingLeft=2;overflow=hidden;fontSize=11;" vertex="1" parent="iHrK704BYx2xCR8LHmUj-330">
          <mxGeometry x="369" width="22" height="44" as="geometry">
            <mxRectangle width="22" height="44" as="alternateBounds" />
          </mxGeometry>
        </mxCell>
        <mxCell id="iHrK704BYx2xCR8LHmUj-334" style="shape=tableRow;horizontal=0;startSize=0;swimlaneHead=0;swimlaneBody=0;fillColor=none;collapsible=0;dropTarget=0;points=[[0,0.5],[1,0.5]];portConstraint=eastwest;top=0;left=0;right=0;bottom=0;" vertex="1" parent="iHrK704BYx2xCR8LHmUj-285">
          <mxGeometry y="553" width="391" height="44" as="geometry" />
        </mxCell>
        <mxCell id="iHrK704BYx2xCR8LHmUj-335" value="NUMBER" style="shape=partialRectangle;connectable=0;fillColor=none;top=0;left=0;bottom=0;right=0;align=left;spacingLeft=2;overflow=hidden;fontSize=11;" vertex="1" parent="iHrK704BYx2xCR8LHmUj-334">
          <mxGeometry width="48" height="44" as="geometry">
            <mxRectangle width="48" height="44" as="alternateBounds" />
          </mxGeometry>
        </mxCell>
        <mxCell id="iHrK704BYx2xCR8LHmUj-336" value="miscellaneous_gross_pay_qtd" style="shape=partialRectangle;connectable=0;fillColor=none;top=0;left=0;bottom=0;right=0;align=left;spacingLeft=2;overflow=hidden;fontSize=11;" vertex="1" parent="iHrK704BYx2xCR8LHmUj-334">
          <mxGeometry x="48" width="321" height="44" as="geometry">
            <mxRectangle width="321" height="44" as="alternateBounds" />
          </mxGeometry>
        </mxCell>
        <mxCell id="iHrK704BYx2xCR8LHmUj-337" value="" style="shape=partialRectangle;connectable=0;fillColor=none;top=0;left=0;bottom=0;right=0;align=left;spacingLeft=2;overflow=hidden;fontSize=11;" vertex="1" parent="iHrK704BYx2xCR8LHmUj-334">
          <mxGeometry x="369" width="22" height="44" as="geometry">
            <mxRectangle width="22" height="44" as="alternateBounds" />
          </mxGeometry>
        </mxCell>
        <mxCell id="iHrK704BYx2xCR8LHmUj-338" style="shape=tableRow;horizontal=0;startSize=0;swimlaneHead=0;swimlaneBody=0;fillColor=none;collapsible=0;dropTarget=0;points=[[0,0.5],[1,0.5]];portConstraint=eastwest;top=0;left=0;right=0;bottom=0;" vertex="1" parent="iHrK704BYx2xCR8LHmUj-285">
          <mxGeometry y="597" width="391" height="44" as="geometry" />
        </mxCell>
        <mxCell id="iHrK704BYx2xCR8LHmUj-339" value="NUMBER" style="shape=partialRectangle;connectable=0;fillColor=none;top=0;left=0;bottom=0;right=0;align=left;spacingLeft=2;overflow=hidden;fontSize=11;" vertex="1" parent="iHrK704BYx2xCR8LHmUj-338">
          <mxGeometry width="48" height="44" as="geometry">
            <mxRectangle width="48" height="44" as="alternateBounds" />
          </mxGeometry>
        </mxCell>
        <mxCell id="iHrK704BYx2xCR8LHmUj-340" value="total_gross_pay" style="shape=partialRectangle;connectable=0;fillColor=none;top=0;left=0;bottom=0;right=0;align=left;spacingLeft=2;overflow=hidden;fontSize=11;" vertex="1" parent="iHrK704BYx2xCR8LHmUj-338">
          <mxGeometry x="48" width="321" height="44" as="geometry">
            <mxRectangle width="321" height="44" as="alternateBounds" />
          </mxGeometry>
        </mxCell>
        <mxCell id="iHrK704BYx2xCR8LHmUj-341" value="" style="shape=partialRectangle;connectable=0;fillColor=none;top=0;left=0;bottom=0;right=0;align=left;spacingLeft=2;overflow=hidden;fontSize=11;" vertex="1" parent="iHrK704BYx2xCR8LHmUj-338">
          <mxGeometry x="369" width="22" height="44" as="geometry">
            <mxRectangle width="22" height="44" as="alternateBounds" />
          </mxGeometry>
        </mxCell>
        <mxCell id="iHrK704BYx2xCR8LHmUj-342" value="has" style="curved=1;startArrow=ERmandOne;startSize=10;;endArrow=ERzeroToMany;endSize=10;;exitX=0.5;exitY=1;entryX=0;entryY=0.25;rounded=0;" edge="1" parent="1" source="iHrK704BYx2xCR8LHmUj-238" target="iHrK704BYx2xCR8LHmUj-285">
          <mxGeometry relative="1" as="geometry">
            <Array as="points">
              <mxPoint x="189" y="413" />
            </Array>
          </mxGeometry>
        </mxCell>
        <mxCell id="iHrK704BYx2xCR8LHmUj-343" value="includes" style="curved=1;startArrow=ERmandOne;startSize=10;;endArrow=ERzeroToMany;endSize=10;;exitX=0.5;exitY=1;entryX=0.5;entryY=0;rounded=0;" edge="1" parent="1" source="iHrK704BYx2xCR8LHmUj-267" target="iHrK704BYx2xCR8LHmUj-285">
          <mxGeometry relative="1" as="geometry">
            <Array as="points" />
          </mxGeometry>
        </mxCell>
        <mxCell id="iHrK704BYx2xCR8LHmUj-344" value="assigned_to" style="curved=1;startArrow=ERmandOne;startSize=10;;endArrow=ERzeroToMany;endSize=10;;exitX=0.5;exitY=1;entryX=1;entryY=0.22;rounded=0;" edge="1" parent="1" source="iHrK704BYx2xCR8LHmUj-276" target="iHrK704BYx2xCR8LHmUj-285">
          <mxGeometry relative="1" as="geometry">
            <Array as="points">
              <mxPoint x="1054" y="413" />
            </Array>
          </mxGeometry>
        </mxCell>
      </root>
    </mxGraphModel>
  </diagram>
</mxfile>
